<svg width="117" height="28" viewBox="0 0 117 28" fill="none" xmlns="http://www.w3.org/2000/svg">
<mask id="mask0_30_286" style="mask-type:luminance" maskUnits="userSpaceOnUse" x="0" y="0" width="31" height="28">
<path d="M0 0H30.1567V27.9563H0V0Z" fill="white"/>
</mask>
<g mask="url(#mask0_30_286)">
<path d="M23.3137 12.573C23.3137 12.1533 23.5323 11.7639 23.8907 11.5454C24.6927 11.0566 25.7206 11.6338 25.7206 12.573V15.0452C25.7206 15.4649 25.5019 15.8543 25.1435 16.0728C24.3416 16.5617 23.3137 15.9845 23.3137 15.0452V12.573ZM23.5463 10.7332C24.3486 10.2442 24.3485 9.07925 23.546 8.59047L14.9576 3.3593C14.4164 3.02967 13.7365 3.02956 13.1952 3.35902L12.873 3.55513C12.3228 3.89045 12.3228 4.68929 12.873 5.02459L22.2405 10.7332C22.6415 10.9776 23.1453 10.9776 23.5463 10.7332ZM27.547 8.29506C28.6305 7.63469 28.6304 6.06159 27.5469 5.40134L24.5171 3.55513L19.5769 0.544277C19.0353 0.214219 18.3548 0.214235 17.8132 0.544317L17.2909 0.862705C16.2075 1.52307 16.2075 3.09612 17.291 3.7564L25.2612 8.61348C25.8027 8.94351 26.4832 8.94348 27.0248 8.61341L27.547 8.29506ZM7.05093 8.77828C7.05093 9.1387 6.75875 9.43088 6.39832 9.43088H2.35592C2.23918 9.43088 2.14155 9.47568 2.05877 9.56081C1.97599 9.64817 1.93566 9.75345 1.93566 9.87666C1.93566 9.99762 1.97599 10.1029 2.05877 10.1903C2.14155 10.2754 2.23918 10.3202 2.35592 10.3202H6.41362C6.7656 10.3202 7.05093 10.6055 7.05093 10.9575C7.05093 11.3095 6.7656 11.5948 6.41362 11.5948H3.75041C3.6358 11.5948 3.53604 11.6374 3.45326 11.7247C3.37048 11.8121 3.33016 11.9151 3.33016 12.0383C3.33016 12.1615 3.37048 12.2646 3.45326 12.352C3.53604 12.4393 3.6358 12.4819 3.75041 12.4819H6.41362C6.7656 12.4819 7.05093 12.7672 7.05093 13.1192C7.05093 13.4712 6.7656 13.7565 6.41362 13.7565H1.95476C1.83803 13.7565 1.73827 13.7991 1.65761 13.8864C1.57483 13.9738 1.53451 14.0791 1.53451 14.2C1.53451 14.3232 1.57483 14.4285 1.65761 14.5159C1.73827 14.601 1.83803 14.6458 1.95476 14.6458H6.41474C6.7661 14.6458 7.05093 14.9306 7.05093 15.282C7.05093 15.6333 6.7661 15.9182 6.41474 15.9182H3.75041C3.6358 15.9182 3.53604 15.963 3.45326 16.0481C3.37048 16.1355 3.33016 16.2407 3.33016 16.3617C3.33016 16.4849 3.37048 16.5902 3.45326 16.6776C3.53604 16.7627 3.6358 16.8075 3.75041 16.8075H6.41474C6.7661 16.8075 7.05093 17.0923 7.05093 17.4437C7.05093 17.795 6.7661 18.0799 6.41474 18.0799H2.35592C2.23918 18.0799 2.14155 18.1247 2.05877 18.212C1.97599 18.2971 1.93566 18.4024 1.93566 18.5256C1.93566 18.6466 1.97599 18.7519 2.05877 18.8392C2.14155 18.9266 2.23918 18.9692 2.35592 18.9692H5.56053C6.38365 18.9692 7.05093 19.6364 7.05093 20.4596C7.05093 20.9794 7.32179 21.4617 7.76569 21.7322L12.873 24.8449L15.6989 26.5664C16.828 27.2543 18.2748 26.4415 18.2748 25.1194V15.4071C18.2748 14.8161 17.9668 14.2677 17.4621 13.9602L8.04311 8.22097C7.60822 7.95599 7.05093 8.26902 7.05093 8.77828ZM27.3764 9.42183C26.8714 9.72932 26.5632 10.2778 26.5632 10.869V15.9764C26.5632 16.1623 26.4847 16.2945 26.3255 16.3752L23.1035 18.3397C23.0038 18.4002 22.8976 18.4159 22.7852 18.3845C22.6727 18.3532 22.5878 18.2837 22.5304 18.1784C22.4922 18.109 22.4731 18.0351 22.4731 17.9544V15.3986C22.4731 14.0886 21.0397 13.2833 19.9209 13.9647C19.4206 14.2694 19.1153 14.8129 19.1153 15.3986V25.1194C19.1153 26.4415 20.5621 27.2543 21.6912 26.5664L24.5171 24.8449L29.5285 21.7918C30.0333 21.4843 30.3413 20.9359 30.3413 20.3448V10.632C30.3413 9.30998 28.8948 8.49722 27.7657 9.18477L27.3764 9.42183ZM11.7088 5.33799C11.1672 5.00798 10.4866 5.00809 9.94511 5.33829L9.84227 5.401C8.75907 6.06148 8.75927 7.63432 9.84263 8.29454L17.8133 13.152C18.3548 13.482 19.0353 13.482 19.5768 13.152L19.6804 13.0888C20.764 12.4285 20.764 10.8552 19.6803 10.195L11.7088 5.33799ZM0.806482 13.7565H0.420184C0.303445 13.7565 0.203688 13.7991 0.123032 13.8864C0.0402533 13.9738 -7.43866e-05 14.0768 -7.43866e-05 14.2C-7.43866e-05 14.3232 0.0402533 14.4285 0.123032 14.5136C0.203688 14.601 0.303445 14.6436 0.420184 14.6436H0.806482C0.923221 14.6436 1.02086 14.601 1.10363 14.5136C1.18641 14.4285 1.22674 14.3232 1.22674 14.2C1.22674 14.0768 1.18641 13.9738 1.10363 13.8864C1.02086 13.7991 0.923221 13.7565 0.806482 13.7565Z" fill="#15AAAD"/>
</g>
<path d="M36.5043 8.65122V5.21045H47.9744V8.65122H44.0944V22.4322H40.3758V8.65122H36.5043Z" fill="white"/>
<path d="M48.1469 21.1057C47.2003 20.0126 46.7291 18.6752 46.7291 17.0915C46.7291 15.5033 47.2003 14.1592 48.1469 13.0593C49.0978 11.9617 50.3055 11.4106 51.7722 11.4106C53.1136 11.4106 54.2195 11.8564 55.0918 12.7457V11.7243H58.5982V22.4319H55.1343V21.2222H55.0918C54.2195 22.2392 53.1136 22.7455 51.7722 22.7455C50.3055 22.7455 49.0978 22.1989 48.1469 21.1057ZM51.127 15.2726C50.6727 15.7452 50.4477 16.3523 50.4477 17.0915C50.4477 17.8263 50.6621 18.4266 51.093 18.8925C51.5281 19.3585 52.1033 19.5914 52.8165 19.5914C53.4999 19.5914 54.0645 19.3562 54.506 18.8836C54.9517 18.4132 55.1767 17.8151 55.1767 17.0915C55.1767 16.3523 54.9475 15.7452 54.489 15.2726C54.0348 14.8021 53.4787 14.5647 52.8165 14.5647C52.1415 14.5647 51.579 14.8021 51.127 15.2726Z" fill="white"/>
<path d="M59.1077 22.4319V11.7243H62.6056V12.8533H62.6481C63.5586 11.8923 64.5265 11.4106 65.5517 11.4106C66.0547 11.4106 66.5535 11.4801 67.0459 11.6167C67.5426 11.7556 68.0181 11.9707 68.4723 12.2619C68.9244 12.5553 69.2916 12.9697 69.576 13.5074C69.8646 14.045 70.009 14.6677 70.009 15.3711V22.4319H66.5026V16.3747C66.5026 15.8191 66.3328 15.333 65.9932 14.9141C65.6578 14.4975 65.2227 14.2869 64.6857 14.2869C64.1593 14.2869 63.6796 14.5064 63.2509 14.941C62.82 15.3711 62.6056 15.8505 62.6056 16.3747V22.4319H59.1077Z" fill="white"/>
<path d="M80.1269 11.7246L75.1093 19.6097H79.7364V22.4322H69.2342L74.2518 14.5382H70.0662V11.7246H80.1269Z" fill="white"/>
<path d="M89.8208 17.5843H82.4599C82.4599 18.337 82.6892 18.897 83.1476 19.2599C83.6103 19.6183 84.1155 19.7975 84.6589 19.7975C85.2234 19.7975 85.6713 19.7214 86.0003 19.5646C86.3335 19.4033 86.7092 19.0874 87.1295 18.6148L89.6595 19.9499C88.6067 21.8136 86.8535 22.7455 84.4041 22.7455C82.8696 22.7455 81.5557 22.1944 80.4648 21.0878C79.3717 19.9767 78.8262 18.6461 78.8262 17.0915C78.8262 15.5324 79.3717 14.1973 80.4648 13.0862C81.5557 11.9707 82.8696 11.4106 84.4041 11.4106C86.0109 11.4106 87.3184 11.9012 88.3266 12.8801C89.3326 13.8613 89.8378 15.2636 89.8378 17.0915C89.8378 17.3379 89.8314 17.5014 89.8208 17.5843ZM82.5618 15.5414H86.4163C86.3356 14.9858 86.1298 14.5602 85.7965 14.26C85.4612 13.9621 85.0282 13.812 84.4975 13.812C83.9202 13.812 83.4575 13.9733 83.1137 14.2959C82.7741 14.614 82.5894 15.0284 82.5618 15.5414Z" fill="white"/>
<path d="M99.8871 17.5843H92.5262C92.5262 18.337 92.7554 18.897 93.2139 19.2599C93.6766 19.6183 94.1817 19.7975 94.7251 19.7975C95.2897 19.7975 95.7375 19.7214 96.0665 19.5646C96.3998 19.4033 96.7754 19.0874 97.1957 18.6148L99.7257 19.9499C98.673 21.8136 96.9198 22.7455 94.4704 22.7455C92.9358 22.7455 91.622 22.1944 90.531 21.0878C89.4379 19.9767 88.8924 18.6461 88.8924 17.0915C88.8924 15.5324 89.4379 14.1973 90.531 13.0862C91.622 11.9707 92.9358 11.4106 94.4704 11.4106C96.0771 11.4106 97.3846 11.9012 98.3928 12.8801C99.3989 13.8613 99.904 15.2636 99.904 17.0915C99.904 17.3379 99.8977 17.5014 99.8871 17.5843ZM92.628 15.5414H96.4825C96.4019 14.9858 96.196 14.5602 95.8628 14.26C95.5274 13.9621 95.0944 13.812 94.5638 13.812C93.9865 13.812 93.5238 13.9733 93.1799 14.2959C92.8403 14.614 92.6556 15.0284 92.628 15.5414Z" fill="white"/>
<path d="M99.6888 22.4319V11.7243H103.187V12.8533H103.229C104.14 11.8923 105.108 11.4106 106.133 11.4106C106.873 11.4106 107.568 11.5719 108.213 11.8945C108.858 12.2126 109.344 12.7054 109.673 13.373C110.702 12.0647 111.825 11.4106 113.044 11.4106C114.124 11.4106 115.052 11.731 115.828 12.3694C116.609 13.0101 117 14.0091 117 15.3711V22.4319H113.494V16.3747C113.494 15.8079 113.343 15.333 113.044 14.95C112.749 14.5692 112.305 14.3765 111.711 14.3765C111.201 14.3765 110.811 14.5423 110.539 14.8693C110.267 15.1919 110.117 15.5839 110.089 16.0431V22.4319H106.591V16.3747C106.591 15.8079 106.44 15.333 106.141 14.95C105.846 14.5692 105.403 14.3765 104.808 14.3765C104.269 14.3765 103.866 14.5535 103.594 14.9052C103.323 15.2591 103.187 15.6802 103.187 16.1686V22.4319H99.6888Z" fill="white"/>
</svg>
