<svg width="47" height="44" viewBox="0 0 47 44" fill="none" xmlns="http://www.w3.org/2000/svg">
<mask id="mask0_4154_13987" style="mask-type:luminance" maskUnits="userSpaceOnUse" x="0" y="0" width="47" height="44">
<path d="M0 0H46.6218V43.22H0V0Z" fill="white"/>
</mask>
<g mask="url(#mask0_4154_13987)">
<path d="M36.0427 19.4379C36.0427 18.789 36.3807 18.187 36.9348 17.8492C38.1746 17.0934 39.7638 17.9858 39.7638 19.4379V23.2598C39.7638 23.9087 39.4257 24.5107 38.8716 24.8485C37.6318 25.6043 36.0427 24.7119 36.0427 23.2598V19.4379ZM36.4023 16.5935C37.6427 15.8376 37.6425 14.0365 36.4019 13.2809L23.1243 5.19358C22.2876 4.68397 21.2365 4.68381 20.3997 5.19316L19.9016 5.49634C19.051 6.01474 19.051 7.24973 19.9016 7.7681L34.3836 16.5936C35.0035 16.9713 35.7824 16.9713 36.4023 16.5935ZM42.5874 12.8242C44.2624 11.8033 44.2623 9.37128 42.5872 8.35054L37.9032 5.49634L30.2657 0.841604C29.4285 0.33134 28.3763 0.331362 27.5391 0.841664L26.7316 1.33389C25.0566 2.3548 25.0567 4.78671 26.7317 5.80749L39.0535 13.3165C39.8907 13.8267 40.9428 13.8266 41.78 13.3164L42.5874 12.8242ZM10.9007 13.5712C10.9007 14.1284 10.449 14.5802 9.89182 14.5802H3.64233C3.46185 14.5802 3.31091 14.6494 3.18294 14.781C3.05496 14.9161 2.99262 15.0788 2.99262 15.2693C2.99262 15.4563 3.05496 15.6191 3.18294 15.7542C3.31091 15.8858 3.46185 15.955 3.64233 15.955H9.91548C10.4596 15.955 10.9007 16.3961 10.9007 16.9403C10.9007 17.4844 10.4596 17.9256 9.91548 17.9256H5.7982C5.621 17.9256 5.46678 17.9913 5.3388 18.1264C5.21083 18.2615 5.14848 18.4208 5.14848 18.6113C5.14848 18.8017 5.21083 18.961 5.3388 19.0961C5.46678 19.2312 5.621 19.297 5.7982 19.297H9.91548C10.4596 19.297 10.9007 19.7381 10.9007 20.2822C10.9007 20.8264 10.4596 21.2675 9.91548 21.2675H3.02215C2.84167 21.2675 2.68745 21.3333 2.56276 21.4683C2.43478 21.6034 2.37244 21.7662 2.37244 21.9532C2.37244 22.1437 2.43478 22.3064 2.56276 22.4415C2.68745 22.5731 2.84167 22.6423 3.02215 22.6423H9.91721C10.4604 22.6423 10.9007 23.0827 10.9007 23.6259C10.9007 24.1691 10.4604 24.6094 9.91721 24.6094H5.7982C5.621 24.6094 5.46678 24.6787 5.3388 24.8103C5.21083 24.9453 5.14848 25.1081 5.14848 25.2951C5.14848 25.4856 5.21083 25.6484 5.3388 25.7834C5.46678 25.915 5.621 25.9843 5.7982 25.9843H9.91721C10.4604 25.9843 10.9007 26.4246 10.9007 26.9678C10.9007 27.511 10.4604 27.9513 9.91721 27.9513H3.64233C3.46185 27.9513 3.31091 28.0206 3.18294 28.1557C3.05496 28.2873 2.99262 28.45 2.99262 28.6405C2.99262 28.8275 3.05496 28.9903 3.18294 29.1253C3.31091 29.2604 3.46185 29.3262 3.64233 29.3262H8.5966C9.86914 29.3262 10.9007 30.3578 10.9007 31.6303C10.9007 32.434 11.3195 33.1796 12.0058 33.5979L19.9016 38.41L24.2704 41.0714C26.016 42.1348 28.2527 40.8783 28.2527 38.8344V23.8193C28.2527 22.9056 27.7765 22.0578 26.9962 21.5824L12.4346 12.7097C11.7623 12.3 10.9007 12.7839 10.9007 13.5712ZM42.3236 14.5662C41.5429 15.0415 41.0665 15.8895 41.0665 16.8035V24.6995C41.0665 24.9869 40.9451 25.1912 40.6989 25.3159L35.7178 28.3531C35.5636 28.4466 35.3995 28.4708 35.2256 28.4223C35.0517 28.3738 34.9204 28.2665 34.8318 28.1037C34.7728 27.9964 34.7432 27.8821 34.7432 27.7574V23.8062C34.7432 21.7809 32.5271 20.5359 30.7975 21.5894C30.0241 22.0605 29.5521 22.9006 29.5521 23.8062V38.8344C29.5521 40.8784 31.7888 42.1348 33.5344 41.0714L37.9032 38.41L45.6507 33.69C46.4311 33.2145 46.9073 32.3668 46.9073 31.453V16.437C46.9073 14.3932 44.6711 13.1367 42.9255 14.1997L42.3236 14.5662ZM18.1018 8.25261C17.2645 7.74242 16.2123 7.74259 15.3751 8.25306L15.2161 8.35001C13.5415 9.37111 13.5418 11.8027 15.2167 12.8234L27.5393 20.3329C28.3764 20.8431 29.4284 20.8431 30.2655 20.3329L30.4257 20.2353C32.101 19.2145 32.1009 16.7822 30.4256 15.7614L18.1018 8.25261ZM1.24692 21.2675H0.649713C0.469237 21.2675 0.315013 21.3333 0.19032 21.4683C0.062346 21.6034 0 21.7627 0 21.9532C0 22.1437 0.062346 22.3064 0.19032 22.438C0.315013 22.5731 0.469237 22.6389 0.649713 22.6389H1.24692C1.4274 22.6389 1.57834 22.5731 1.70632 22.438C1.83429 22.3064 1.89664 22.1437 1.89664 21.9532C1.89664 21.7627 1.83429 21.6034 1.70632 21.4683C1.57834 21.3333 1.4274 21.2675 1.24692 21.2675Z" fill="#0F8C5A"/>
</g>
</svg>
