<svg width="181" height="44" viewBox="0 0 181 44" fill="none" xmlns="http://www.w3.org/2000/svg">
<mask id="mask0_4154_13986" style="mask-type:luminance" maskUnits="userSpaceOnUse" x="0" y="0" width="47" height="44">
<path d="M0 0H46.6218V43.22H0V0Z" fill="white"/>
</mask>
<g mask="url(#mask0_4154_13986)">
<path d="M36.0427 19.4379C36.0427 18.789 36.3807 18.187 36.9348 17.8492C38.1746 17.0935 39.7638 17.9858 39.7638 19.4379V23.2598C39.7638 23.9087 39.4257 24.5107 38.8716 24.8485C37.6318 25.6043 36.0427 24.7119 36.0427 23.2598V19.4379ZM36.4023 16.5935C37.6427 15.8376 37.6425 14.0365 36.4019 13.2809L23.1243 5.19358C22.2876 4.68397 21.2365 4.68381 20.3997 5.19316L19.9016 5.49634C19.051 6.01474 19.051 7.24973 19.9016 7.7681L34.3836 16.5936C35.0035 16.9713 35.7824 16.9713 36.4023 16.5935ZM42.5874 12.8242C44.2624 11.8033 44.2623 9.37128 42.5872 8.35054L37.9032 5.49634L30.2657 0.841604C29.4285 0.33134 28.3763 0.331362 27.5391 0.841664L26.7316 1.33389C25.0566 2.3548 25.0567 4.78671 26.7317 5.80749L39.0535 13.3165C39.8907 13.8267 40.9428 13.8266 41.78 13.3164L42.5874 12.8242ZM10.9007 13.5712C10.9007 14.1284 10.449 14.5802 9.89182 14.5802H3.64233C3.46185 14.5802 3.31091 14.6494 3.18294 14.781C3.05496 14.9161 2.99262 15.0788 2.99262 15.2693C2.99262 15.4563 3.05496 15.6191 3.18294 15.7542C3.31091 15.8858 3.46185 15.955 3.64233 15.955H9.91548C10.4596 15.955 10.9007 16.3961 10.9007 16.9403C10.9007 17.4844 10.4596 17.9256 9.91548 17.9256H5.7982C5.621 17.9256 5.46678 17.9914 5.3388 18.1264C5.21083 18.2615 5.14848 18.4208 5.14848 18.6113C5.14848 18.8017 5.21083 18.961 5.3388 19.0961C5.46678 19.2312 5.621 19.297 5.7982 19.297H9.91548C10.4596 19.297 10.9007 19.7381 10.9007 20.2822C10.9007 20.8264 10.4596 21.2675 9.91548 21.2675H3.02215C2.84167 21.2675 2.68745 21.3333 2.56276 21.4683C2.43478 21.6034 2.37244 21.7662 2.37244 21.9532C2.37244 22.1437 2.43478 22.3064 2.56276 22.4415C2.68745 22.5731 2.84167 22.6423 3.02215 22.6423H9.91721C10.4604 22.6423 10.9007 23.0827 10.9007 23.6259C10.9007 24.1691 10.4604 24.6094 9.91721 24.6094H5.7982C5.621 24.6094 5.46678 24.6787 5.3388 24.8103C5.21083 24.9453 5.14848 25.1081 5.14848 25.2951C5.14848 25.4856 5.21083 25.6484 5.3388 25.7834C5.46678 25.915 5.621 25.9843 5.7982 25.9843H9.91721C10.4604 25.9843 10.9007 26.4246 10.9007 26.9678C10.9007 27.511 10.4604 27.9513 9.91721 27.9513H3.64233C3.46185 27.9513 3.31091 28.0206 3.18294 28.1557C3.05496 28.2873 2.99262 28.45 2.99262 28.6405C2.99262 28.8275 3.05496 28.9903 3.18294 29.1253C3.31091 29.2604 3.46185 29.3262 3.64233 29.3262H8.5966C9.86914 29.3262 10.9007 30.3578 10.9007 31.6303C10.9007 32.434 11.3195 33.1796 12.0058 33.5979L19.9016 38.41L24.2704 41.0714C26.016 42.1348 28.2527 40.8783 28.2527 38.8344V23.8193C28.2527 22.9056 27.7765 22.0578 26.9962 21.5824L12.4346 12.7097C11.7623 12.3 10.9007 12.7839 10.9007 13.5712ZM42.3236 14.5662C41.5429 15.0415 41.0665 15.8895 41.0665 16.8035V24.6995C41.0665 24.9869 40.9451 25.1912 40.6989 25.3159L35.7178 28.3531C35.5636 28.4466 35.3995 28.4708 35.2256 28.4223C35.0517 28.3738 34.9204 28.2665 34.8318 28.1037C34.7728 27.9964 34.7432 27.8821 34.7432 27.7574V23.8062C34.7432 21.7809 32.5271 20.5359 30.7975 21.5894C30.0241 22.0605 29.5521 22.9006 29.5521 23.8062V38.8344C29.5521 40.8784 31.7888 42.1348 33.5344 41.0714L37.9032 38.41L45.6507 33.69C46.4311 33.2145 46.9073 32.3668 46.9073 31.453V16.437C46.9073 14.3932 44.6711 13.1367 42.9255 14.1997L42.3236 14.5662ZM18.1018 8.25261C17.2645 7.74242 16.2123 7.74259 15.3751 8.25307L15.2161 8.35001C13.5415 9.37111 13.5418 11.8027 15.2167 12.8234L27.5393 20.3329C28.3764 20.8431 29.4284 20.8431 30.2655 20.3329L30.4257 20.2353C32.101 19.2145 32.1009 16.7822 30.4256 15.7614L18.1018 8.25261ZM1.24692 21.2675H0.649713C0.469237 21.2675 0.315013 21.3333 0.19032 21.4683C0.062346 21.6034 0 21.7627 0 21.9532C0 22.1437 0.062346 22.3064 0.19032 22.438C0.315013 22.5731 0.469237 22.6389 0.649713 22.6389H1.24692C1.4274 22.6389 1.57834 22.5731 1.70632 22.438C1.83429 22.3064 1.89664 22.1437 1.89664 21.9532C1.89664 21.7627 1.83429 21.6034 1.70632 21.4683C1.57834 21.3333 1.4274 21.2675 1.24692 21.2675Z" fill="#15AAAD"/>
</g>
<path d="M56.439 13.375V8.05563H74.1715V13.375H68.1732V34.6803H62.4242V13.375H56.439Z" fill="#1E2A32"/>
<path d="M74.439 32.6293C72.9755 30.9393 72.2471 28.8718 72.2471 26.4233C72.2471 23.968 72.9755 21.8901 74.439 20.1897C75.9091 18.4928 77.7762 17.6408 80.0436 17.6408C82.1175 17.6408 83.8271 18.33 85.1757 19.7049V18.1257H90.5965V34.6795H85.2413V32.8094H85.1757C83.8271 34.3816 82.1175 35.1643 80.0436 35.1643C77.7762 35.1643 75.9091 34.3193 74.439 32.6293ZM79.0461 23.6113C78.3439 24.342 77.996 25.2805 77.996 26.4233C77.996 27.5593 78.3275 28.4874 78.9936 29.2077C79.6663 29.928 80.5555 30.2882 81.6581 30.2882C82.7147 30.2882 83.5875 29.9246 84.27 29.1939C84.9591 28.4666 85.307 27.5419 85.307 26.4233C85.307 25.2805 84.9526 24.342 84.2438 23.6113C83.5416 22.884 82.6819 22.5169 81.6581 22.5169C80.6146 22.5169 79.745 22.884 79.0461 23.6113Z" fill="#1E2A32"/>
<path d="M91.3843 34.6802V18.1263H96.792V19.8718H96.8576C98.2653 18.3861 99.7616 17.6415 101.347 17.6415C102.124 17.6415 102.895 17.7489 103.657 17.9601C104.424 18.1748 105.16 18.5073 105.862 18.9575C106.561 19.4112 107.128 20.0519 107.568 20.883C108.014 21.7142 108.237 22.6769 108.237 23.7643V34.6802H102.817V25.3158C102.817 24.457 102.554 23.7055 102.029 23.0579C101.511 22.4137 100.838 22.0882 100.008 22.0882C99.194 22.0882 98.4524 22.4276 97.7895 23.0994C97.1234 23.7643 96.792 24.5055 96.792 25.3158V34.6802H91.3843Z" fill="#1E2A32"/>
<path d="M123.877 18.1265L116.119 30.3168H123.273V34.6803H107.037L114.794 22.4762H108.323V18.1265H123.877Z" fill="#1E2A32"/>
<path d="M138.862 27.1859H127.482C127.482 28.3495 127.837 29.2153 128.546 29.7764C129.261 30.3305 130.042 30.6075 130.882 30.6075C131.755 30.6075 132.447 30.4898 132.956 30.2473C133.471 29.998 134.052 29.5097 134.702 28.779L138.613 30.843C136.985 33.7243 134.275 35.165 130.488 35.165C128.116 35.165 126.085 34.3131 124.398 32.6023C122.708 30.8846 121.865 28.8275 121.865 26.424C121.865 24.0137 122.708 21.9497 124.398 20.2319C126.085 18.5073 128.116 17.6415 130.488 17.6415C132.972 17.6415 134.994 18.3999 136.552 19.9133C138.108 21.4302 138.889 23.5981 138.889 26.424C138.889 26.805 138.879 27.0578 138.862 27.1859ZM127.64 24.0275H133.599C133.474 23.1687 133.156 22.5107 132.641 22.0466C132.122 21.586 131.453 21.354 130.633 21.354C129.74 21.354 129.025 21.6033 128.493 22.102C127.968 22.5938 127.683 23.2345 127.64 24.0275Z" fill="#1E2A32"/>
<path d="M154.427 27.1859H143.047C143.047 28.3495 143.401 29.2153 144.11 29.7764C144.825 30.3305 145.606 30.6075 146.446 30.6075C147.319 30.6075 148.012 30.4898 148.52 30.2473C149.035 29.998 149.616 29.5097 150.266 28.779L154.177 30.843C152.55 33.7243 149.839 35.165 146.053 35.165C143.68 35.165 141.649 34.3131 139.962 32.6023C138.273 30.8846 137.429 28.8275 137.429 26.424C137.429 24.0137 138.273 21.9497 139.962 20.2319C141.649 18.5073 143.68 17.6415 146.053 17.6415C148.537 17.6415 150.558 18.3999 152.117 19.9133C153.672 21.4302 154.453 23.5981 154.453 26.424C154.453 26.805 154.443 27.0578 154.427 27.1859ZM143.204 24.0275H149.163C149.039 23.1687 148.72 22.5107 148.205 22.0466C147.687 21.586 147.017 21.354 146.197 21.354C145.305 21.354 144.589 21.6033 144.058 22.102C143.533 22.5938 143.247 23.2345 143.204 24.0275Z" fill="#1E2A32"/>
<path d="M154.119 34.6802V18.1263H159.526V19.8718H159.592C161 18.3861 162.496 17.6415 164.081 17.6415C165.226 17.6415 166.299 17.8909 167.297 18.3895C168.294 18.8813 169.046 19.6432 169.554 20.6752C171.146 18.6527 172.882 17.6415 174.765 17.6415C176.435 17.6415 177.869 18.1367 179.07 19.1237C180.278 20.1142 180.882 21.6588 180.882 23.7643V34.6802H175.461V25.3158C175.461 24.4397 175.228 23.7055 174.765 23.1133C174.309 22.5245 173.623 22.2267 172.704 22.2267C171.917 22.2267 171.313 22.483 170.893 22.9886C170.473 23.4873 170.24 24.0933 170.197 24.8033V34.6802H164.79V25.3158C164.79 24.4397 164.557 23.7055 164.094 23.1133C163.638 22.5245 162.952 22.2267 162.033 22.2267C161.2 22.2267 160.576 22.5003 160.156 23.044C159.736 23.5912 159.526 24.2423 159.526 24.9972V34.6802H154.119Z" fill="#1E2A32"/>
</svg>
