<svg width="172" height="41" viewBox="0 0 172 41" fill="none" xmlns="http://www.w3.org/2000/svg">
<mask id="mask0_96_917" style="mask-type:luminance" maskUnits="userSpaceOnUse" x="0" y="0" width="45" height="41">
<path d="M0 0H44.18V40.9563H0V0Z" fill="white"/>
</mask>
<g mask="url(#mask0_96_917)">
<path d="M34.1549 18.4196C34.1549 17.8048 34.4753 17.2343 35.0003 16.9142C36.1752 16.198 37.6811 17.0437 37.6811 18.4196V22.0414C37.6811 22.6563 37.3607 23.2268 36.8357 23.5469C35.6608 24.2631 34.1549 23.4174 34.1549 22.0414V18.4196ZM34.4957 15.7243C35.6711 15.0079 35.6709 13.3012 34.4953 12.5851L21.9131 4.92141C21.1203 4.43849 20.1242 4.43833 19.3312 4.921L18.8592 5.20831C18.0531 5.69956 18.0532 6.86986 18.8592 7.36108L32.5827 15.7243C33.1701 16.0823 33.9083 16.0823 34.4957 15.7243ZM40.3569 12.1524C41.9441 11.1849 41.944 8.88029 40.3566 7.91302L35.918 5.20831L28.6805 0.797367C27.8871 0.313828 26.8901 0.313852 26.0967 0.797426L25.3315 1.26387C23.7442 2.23131 23.7443 4.53585 25.3316 5.50316L37.008 12.6188C37.8014 13.1023 38.7983 13.1023 39.5917 12.6187L40.3569 12.1524ZM10.3298 12.8603C10.3298 13.3883 9.90175 13.8163 9.37373 13.8163H3.45156C3.28054 13.8163 3.1375 13.882 3.01623 14.0067C2.89496 14.1347 2.83588 14.2889 2.83588 14.4694C2.83588 14.6466 2.89496 14.8009 3.01623 14.9289C3.1375 15.0536 3.28054 15.1192 3.45156 15.1192H9.39614C9.91179 15.1192 10.3298 15.5372 10.3298 16.0529C10.3298 16.5685 9.91179 16.9865 9.39614 16.9865H5.49451C5.3266 16.9865 5.18045 17.0489 5.05918 17.1769C4.93791 17.3049 4.87883 17.4558 4.87883 17.6363C4.87883 17.8168 4.93791 17.9678 5.05918 18.0958C5.18045 18.2237 5.3266 18.2861 5.49451 18.2861H9.39614C9.91179 18.2861 10.3298 18.7041 10.3298 19.2198C10.3298 19.7354 9.91179 20.1534 9.39614 20.1534H2.86386C2.69284 20.1534 2.54669 20.2158 2.42853 20.3438C2.30726 20.4717 2.24818 20.626 2.24818 20.8032C2.24818 20.9837 2.30726 21.1379 2.42853 21.2659C2.54669 21.3906 2.69284 21.4563 2.86386 21.4563H9.39778C9.91252 21.4563 10.3298 21.8736 10.3298 22.3883C10.3298 22.903 9.91252 23.3203 9.39778 23.3203H5.49451C5.3266 23.3203 5.18045 23.3859 5.05918 23.5107C4.93791 23.6386 4.87883 23.7929 4.87883 23.9701C4.87883 24.1506 4.93791 24.3048 5.05918 24.4328C5.18045 24.5575 5.3266 24.6232 5.49451 24.6232H9.39778C9.91252 24.6232 10.3298 25.0404 10.3298 25.5552C10.3298 26.0699 9.91252 26.4872 9.39778 26.4872H3.45156C3.28054 26.4872 3.1375 26.5528 3.01623 26.6808C2.89496 26.8055 2.83588 26.9598 2.83588 27.1403C2.83588 27.3175 2.89496 27.4717 3.01623 27.5997C3.1375 27.7277 3.28054 27.7901 3.45156 27.7901H8.14635C9.35224 27.7901 10.3298 28.7676 10.3298 29.9735C10.3298 30.7351 10.7266 31.4416 11.3769 31.838L18.8592 36.3981L22.9992 38.9201C24.6534 39.9278 26.7729 38.7371 26.7729 36.8002V22.5716C26.7729 21.7057 26.3217 20.9024 25.5823 20.4518L11.7834 12.0438C11.1462 11.6556 10.3298 12.1142 10.3298 12.8603ZM40.1068 13.8031C39.367 14.2536 38.9156 15.0571 38.9156 15.9232V23.4056C38.9156 23.678 38.8005 23.8716 38.5673 23.9898L33.847 26.8679C33.7009 26.9565 33.5454 26.9795 33.3806 26.9335C33.2158 26.8876 33.0914 26.7858 33.0075 26.6316C32.9515 26.5299 32.9235 26.4216 32.9235 26.3034V22.5592C32.9235 20.64 30.8235 19.4602 29.1844 20.4585C28.4515 20.9049 28.0043 21.701 28.0043 22.5592V36.8002C28.0043 38.7371 30.1238 39.9278 31.778 38.9201L35.918 36.3981L43.2597 31.9253C43.9992 31.4747 44.4505 30.6714 44.4505 29.8054V15.5759C44.4505 13.6392 42.3314 12.4485 40.6772 13.4558L40.1068 13.8031ZM17.1537 7.82021C16.3602 7.33675 15.3631 7.33691 14.5698 7.82065L14.4192 7.91252C12.8323 8.88013 12.8325 11.1844 14.4197 12.1516L26.0969 19.2678C26.8902 19.7512 27.887 19.7512 28.6803 19.2678L28.8322 19.1753C30.4197 18.2079 30.4196 15.9031 28.832 14.9358L17.1537 7.82021ZM1.18161 20.1534H0.615684C0.44466 20.1534 0.298514 20.2158 0.180352 20.3438C0.0590806 20.4717 0 20.6227 0 20.8032C0 20.9837 0.0590806 21.1379 0.180352 21.2626C0.298514 21.3906 0.44466 21.453 0.615684 21.453H1.18161C1.35264 21.453 1.49568 21.3906 1.61695 21.2626C1.73822 21.1379 1.7973 20.9837 1.7973 20.8032C1.7973 20.6227 1.73822 20.4717 1.61695 20.3438C1.49568 20.2158 1.35264 20.1534 1.18161 20.1534Z" fill="#15AAAD"/>
</g>
<path d="M53.4792 12.6743V7.63354H70.2831V12.6743H64.5989V32.8637H59.151V12.6743H53.4792Z" fill="#1E2A32"/>
<path d="M70.5359 30.9205C69.1491 29.319 68.4587 27.3598 68.4587 25.0396C68.4587 22.7128 69.1491 20.7438 70.5359 19.1324C71.929 17.5244 73.6983 16.717 75.8469 16.717C77.8122 16.717 79.4322 17.3701 80.7102 18.673V17.1765H85.8471V32.8633H80.7724V31.0911H80.7102C79.4322 32.581 77.8122 33.3227 75.8469 33.3227C73.6983 33.3227 71.929 32.522 70.5359 30.9205ZM74.9017 22.3748C74.2362 23.0672 73.9066 23.9566 73.9066 25.0396C73.9066 26.116 74.2207 26.9955 74.8519 27.6781C75.4894 28.3607 76.332 28.702 77.3768 28.702C78.3781 28.702 79.2052 28.3574 79.852 27.665C80.505 26.9758 80.8346 26.0996 80.8346 25.0396C80.8346 23.9566 80.4988 23.0672 79.8271 22.3748C79.1617 21.6856 78.347 21.3378 77.3768 21.3378C76.388 21.3378 75.564 21.6856 74.9017 22.3748Z" fill="#1E2A32"/>
<path d="M86.5938 32.8633V17.1765H91.7182V18.8305H91.7804C93.1144 17.4226 94.5323 16.717 96.0342 16.717C96.7712 16.717 97.5019 16.8188 98.2233 17.019C98.951 17.2224 99.6475 17.5375 100.313 17.9641C100.975 18.394 101.513 19.0011 101.93 19.7888C102.353 20.5764 102.564 21.4887 102.564 22.5192V32.8633H97.4273V23.9894C97.4273 23.1755 97.1785 22.4634 96.681 21.8497C96.1897 21.2393 95.5523 20.9308 94.7656 20.9308C93.9944 20.9308 93.2916 21.2524 92.6635 21.8891C92.0323 22.5192 91.7182 23.2215 91.7182 23.9894V32.8633H86.5938Z" fill="#1E2A32"/>
<path d="M117.387 17.177L110.036 28.7288H116.815V32.8638H101.429L108.78 21.2989H102.648V17.177H117.387Z" fill="#1E2A32"/>
<path d="M131.588 25.7616H120.805C120.805 26.8642 121.141 27.6847 121.812 28.2163C122.49 28.7414 123.23 29.0039 124.026 29.0039C124.853 29.0039 125.509 28.8923 125.991 28.6626C126.48 28.4263 127.03 27.9636 127.646 27.2712L131.352 29.2271C129.81 31.9575 127.241 33.3227 123.653 33.3227C121.405 33.3227 119.48 32.5154 117.882 30.8942C116.28 29.2665 115.481 27.3171 115.481 25.0396C115.481 22.7555 116.28 20.7995 117.882 19.1718C119.48 17.5375 121.405 16.717 123.653 16.717C126.007 16.717 127.922 17.4357 129.399 18.8699C130.873 20.3073 131.613 22.3617 131.613 25.0396C131.613 25.4006 131.604 25.6401 131.588 25.7616ZM120.954 22.7686H126.601C126.483 21.9547 126.181 21.3312 125.693 20.8914C125.202 20.455 124.567 20.2351 123.79 20.2351C122.944 20.2351 122.266 20.4714 121.762 20.9439C121.265 21.4099 120.994 22.0171 120.954 22.7686Z" fill="#1E2A32"/>
<path d="M146.336 25.7616H135.552C135.552 26.8642 135.888 27.6847 136.559 28.2163C137.237 28.7414 137.977 29.0039 138.773 29.0039C139.601 29.0039 140.257 28.8923 140.739 28.6626C141.227 28.4263 141.777 27.9636 142.393 27.2712L146.099 29.2271C144.557 31.9575 141.989 33.3227 138.4 33.3227C136.152 33.3227 134.227 32.5154 132.629 30.8942C131.028 29.2665 130.229 27.3171 130.229 25.0396C130.229 22.7555 131.028 20.7995 132.629 19.1718C134.227 17.5375 136.152 16.717 138.4 16.717C140.754 16.717 142.67 17.4357 144.147 18.8699C145.621 20.3073 146.361 22.3617 146.361 25.0396C146.361 25.4006 146.351 25.6401 146.336 25.7616ZM135.701 22.7686H141.348C141.23 21.9547 140.928 21.3312 140.44 20.8914C139.949 20.455 139.315 20.2351 138.537 20.2351C137.691 20.2351 137.013 20.4714 136.51 20.9439C136.012 21.4099 135.742 22.0171 135.701 22.7686Z" fill="#1E2A32"/>
<path d="M146.045 32.8633V17.1765H151.169V18.8305H151.232C152.566 17.4226 153.984 16.717 155.485 16.717C156.571 16.717 157.587 16.9533 158.533 17.4259C159.478 17.8919 160.19 18.6139 160.672 19.5919C162.18 17.6753 163.825 16.717 165.61 16.717C167.193 16.717 168.552 17.1863 169.69 18.1216C170.834 19.0602 171.406 20.5239 171.406 22.5192V32.8633H166.269V23.9894C166.269 23.1591 166.048 22.4634 165.61 21.9022C165.178 21.3443 164.528 21.0621 163.657 21.0621C162.911 21.0621 162.339 21.3049 161.941 21.7841C161.543 22.2566 161.322 22.8309 161.282 23.5037V32.8633H156.157V23.9894C156.157 23.1591 155.936 22.4634 155.498 21.9022C155.066 21.3443 154.416 21.0621 153.545 21.0621C152.755 21.0621 152.164 21.3213 151.766 21.8366C151.368 22.3551 151.169 22.9721 151.169 23.6875V32.8633H146.045Z" fill="#1E2A32"/>
</svg>
