<svg width="117" height="28" viewBox="0 0 117 28" fill="none" xmlns="http://www.w3.org/2000/svg">
<mask id="mask0_149_7093" style="mask-type:luminance" maskUnits="userSpaceOnUse" x="0" y="0" width="31" height="28">
<path d="M0 0H30.1567V27.9563H0V0Z" fill="white"/>
</mask>
<g mask="url(#mask0_149_7093)">
<path d="M23.3137 12.5721C23.3137 12.1523 23.5324 11.7629 23.8908 11.5445C24.6928 11.0556 25.7207 11.6328 25.7207 12.5721V15.0443C25.7207 15.464 25.502 15.8534 25.1436 16.0718C24.3416 16.5607 23.3137 15.9835 23.3137 15.0443V12.5721ZM23.5463 10.7322C24.3487 10.2432 24.3485 9.07827 23.5461 8.58949L14.9576 3.35832C14.4164 3.02869 13.7366 3.02858 13.1953 3.35805L12.8731 3.55416C12.3229 3.88948 12.3229 4.68831 12.8731 5.02362L22.2406 10.7323C22.6415 10.9766 23.1454 10.9766 23.5463 10.7322ZM27.5471 8.29409C28.6306 7.63371 28.6305 6.06061 27.547 5.40036L24.5172 3.55416L19.577 0.543301C19.0354 0.213243 18.3549 0.213258 17.8133 0.543341L17.291 0.861729C16.2075 1.52209 16.2076 3.09514 17.2911 3.75542L25.2612 8.61251C25.8028 8.94253 26.4833 8.94251 27.0248 8.61244L27.5471 8.29409ZM7.051 8.7773C7.051 9.13772 6.75882 9.42991 6.3984 9.42991H2.35599C2.23926 9.42991 2.14162 9.47471 2.05884 9.55983C1.97606 9.64719 1.93574 9.75248 1.93574 9.87568C1.93574 9.99665 1.97606 10.1019 2.05884 10.1893C2.14162 10.2744 2.23926 10.3192 2.35599 10.3192H6.4137C6.76567 10.3192 7.051 10.6046 7.051 10.9565C7.051 11.3085 6.76567 11.5938 6.4137 11.5938H3.75049C3.63587 11.5938 3.53611 11.6364 3.45334 11.7238C3.37056 11.8111 3.33023 11.9142 3.33023 12.0374C3.33023 12.1606 3.37056 12.2636 3.45334 12.351C3.53611 12.4383 3.63587 12.4809 3.75049 12.4809H6.4137C6.76567 12.4809 7.051 12.7662 7.051 13.1182C7.051 13.4702 6.76567 13.7555 6.4137 13.7555H1.95484C1.8381 13.7555 1.73834 13.7981 1.65769 13.8854C1.57491 13.9728 1.53458 14.0781 1.53458 14.1991C1.53458 14.3223 1.57491 14.4275 1.65769 14.5149C1.73834 14.6 1.8381 14.6448 1.95484 14.6448H6.41482C6.76617 14.6448 7.051 14.9297 7.051 15.281C7.051 15.6324 6.76617 15.9172 6.41482 15.9172H3.75049C3.63587 15.9172 3.53611 15.962 3.45334 16.0471C3.37056 16.1345 3.33023 16.2398 3.33023 16.3607C3.33023 16.4839 3.37056 16.5892 3.45334 16.6766C3.53611 16.7617 3.63587 16.8065 3.75049 16.8065H6.41482C6.76617 16.8065 7.051 17.0913 7.051 17.4427C7.051 17.7941 6.76617 18.0789 6.41482 18.0789H2.35599C2.23926 18.0789 2.14162 18.1237 2.05884 18.211C1.97606 18.2962 1.93574 18.4015 1.93574 18.5247C1.93574 18.6456 1.97606 18.7509 2.05884 18.8383C2.14162 18.9256 2.23926 18.9682 2.35599 18.9682H5.5606C6.38373 18.9682 7.051 19.6355 7.051 20.4586C7.051 20.9784 7.32187 21.4607 7.76577 21.7313L12.8731 24.8439L15.699 26.5654C16.8281 27.2533 18.2749 26.4405 18.2749 25.1184V15.4061C18.2749 14.8151 17.9669 14.2668 17.4621 13.9592L8.04319 8.22C7.6083 7.95501 7.051 8.26804 7.051 8.7773ZM27.3765 9.42086C26.8715 9.72835 26.5633 10.2768 26.5633 10.868V15.9754C26.5633 16.1614 26.4848 16.2935 26.3256 16.3742L23.1036 18.3387C23.0038 18.3992 22.8977 18.4149 22.7852 18.3835C22.6727 18.3522 22.5878 18.2827 22.5305 18.1774C22.4923 18.108 22.4732 18.0341 22.4732 17.9534V15.3976C22.4732 14.0876 21.0398 13.2823 19.921 13.9638C19.4207 14.2685 19.1154 14.8119 19.1154 15.3976V25.1184C19.1154 26.4405 20.5622 27.2533 21.6913 26.5654L24.5172 24.8439L29.5286 21.7908C30.0334 21.4833 30.3414 20.9349 30.3414 20.3439V10.631C30.3414 9.309 28.8949 8.49624 27.7658 9.18379L27.3765 9.42086ZM11.7089 5.33701C11.1673 5.007 10.4867 5.00712 9.94519 5.33731L9.84234 5.40002C8.75915 6.0605 8.75934 7.63335 9.84271 8.29356L17.8134 13.151C18.3549 13.481 19.0354 13.481 19.5769 13.151L19.6805 13.0879C20.7641 12.4275 20.7641 10.8543 19.6804 10.194L11.7089 5.33701ZM0.806557 13.7555H0.420258C0.30352 13.7555 0.203762 13.7981 0.123106 13.8854C0.0403277 13.9728 0 14.0758 0 14.1991C0 14.3223 0.0403277 14.4275 0.123106 14.5127C0.203762 14.6 0.30352 14.6426 0.420258 14.6426H0.806557C0.923295 14.6426 1.02093 14.6 1.10371 14.5127C1.18649 14.4275 1.22682 14.3223 1.22682 14.1991C1.22682 14.0758 1.18649 13.9728 1.10371 13.8854C1.02093 13.7981 0.923295 13.7555 0.806557 13.7555Z" fill="white"/>
</g>
<path d="M36.5043 8.65171V5.21094H47.9744V8.65171H44.0944V22.4327H40.3757V8.65171H36.5043Z" fill="white"/>
<path d="M48.147 21.1072C47.2003 20.014 46.7291 18.6767 46.7291 17.093C46.7291 15.5047 47.2003 14.1607 48.147 13.0608C49.0979 11.9632 50.3056 11.4121 51.7722 11.4121C53.1137 11.4121 54.2195 11.8579 55.0918 12.7472V11.7257H58.5982V22.4333H55.1343V21.2237H55.0918C54.2195 22.2407 53.1137 22.747 51.7722 22.747C50.3056 22.747 49.0979 22.2004 48.147 21.1072ZM51.127 15.274C50.6728 15.7467 50.4478 16.3537 50.4478 17.093C50.4478 17.8277 50.6622 18.4281 51.093 18.894C51.5281 19.3599 52.1033 19.5929 52.8165 19.5929C53.5 19.5929 54.0645 19.3577 54.506 18.885C54.9518 18.4146 55.1767 17.8165 55.1767 17.093C55.1767 16.3537 54.9475 15.7467 54.4891 15.274C54.0348 14.8036 53.4787 14.5662 52.8165 14.5662C52.1415 14.5662 51.5791 14.8036 51.127 15.274Z" fill="white"/>
<path d="M59.1077 22.4333V11.7257H62.6056V12.8547H62.648C63.5586 11.8937 64.5265 11.4121 65.5516 11.4121C66.0547 11.4121 66.5535 11.4816 67.0459 11.6182C67.5426 11.7571 68.018 11.9721 68.4722 12.2633C68.9243 12.5568 69.2915 12.9712 69.5759 13.5088C69.8646 14.0465 70.0089 14.6692 70.0089 15.3726V22.4333H66.5025V16.3761C66.5025 15.8206 66.3327 15.3345 65.9931 14.9156C65.6578 14.4989 65.2226 14.2884 64.6856 14.2884C64.1593 14.2884 63.6796 14.5079 63.2508 14.9425C62.8199 15.3726 62.6056 15.852 62.6056 16.3761V22.4333H59.1077Z" fill="white"/>
<path d="M80.1269 11.7246L75.1093 19.6097H79.7363V22.4322H69.2341L74.2518 14.5382H70.0662V11.7246H80.1269Z" fill="white"/>
<path d="M89.8208 17.5858H82.4599C82.4599 18.3385 82.6892 18.8985 83.1476 19.2614C83.6103 19.6198 84.1155 19.799 84.6589 19.799C85.2234 19.799 85.6713 19.7228 86.0003 19.566C86.3335 19.4047 86.7092 19.0889 87.1295 18.6162L89.6595 19.9513C88.6067 21.8151 86.8535 22.747 84.4041 22.747C82.8696 22.747 81.5557 22.1959 80.4648 21.0893C79.3717 19.9782 78.8262 18.6476 78.8262 17.093C78.8262 15.5339 79.3717 14.1988 80.4648 13.0877C81.5557 11.9721 82.8696 11.4121 84.4041 11.4121C86.0109 11.4121 87.3184 11.9027 88.3266 12.8816C89.3326 13.8628 89.8378 15.2651 89.8378 17.093C89.8378 17.3394 89.8314 17.5029 89.8208 17.5858ZM82.5618 15.5428H86.4163C86.3356 14.9873 86.1298 14.5617 85.7965 14.2615C85.4612 13.9636 85.0282 13.8135 84.4975 13.8135C83.9202 13.8135 83.4575 13.9748 83.1137 14.2973C82.7741 14.6154 82.5894 15.0299 82.5618 15.5428Z" fill="white"/>
<path d="M99.8871 17.5858H92.5262C92.5262 18.3385 92.7554 18.8985 93.2139 19.2614C93.6766 19.6198 94.1818 19.799 94.7251 19.799C95.2897 19.799 95.7376 19.7228 96.0666 19.566C96.3998 19.4047 96.7755 19.0889 97.1957 18.6162L99.7258 19.9513C98.673 21.8151 96.9198 22.747 94.4704 22.747C92.9359 22.747 91.622 22.1959 90.531 21.0893C89.4379 19.9782 88.8925 18.6476 88.8925 17.093C88.8925 15.5339 89.4379 14.1988 90.531 13.0877C91.622 11.9721 92.9359 11.4121 94.4704 11.4121C96.0772 11.4121 97.3847 11.9027 98.3928 12.8816C99.3989 13.8628 99.9041 15.2651 99.9041 17.093C99.9041 17.3394 99.8977 17.5029 99.8871 17.5858ZM92.6281 15.5428H96.4826C96.4019 14.9873 96.196 14.5617 95.8628 14.2615C95.5274 13.9636 95.0945 13.8135 94.5638 13.8135C93.9865 13.8135 93.5238 13.9748 93.1799 14.2973C92.8403 14.6154 92.6557 15.0299 92.6281 15.5428Z" fill="white"/>
<path d="M99.6887 22.4333V11.7257H103.187V12.8547H103.229C104.14 11.8937 105.108 11.4121 106.133 11.4121C106.873 11.4121 107.568 11.5734 108.213 11.896C108.858 12.2141 109.344 12.7069 109.673 13.3744C110.702 12.0662 111.825 11.4121 113.044 11.4121C114.124 11.4121 115.052 11.7324 115.828 12.3709C116.609 13.0115 117 14.0106 117 15.3726V22.4333H113.494V16.3761C113.494 15.8094 113.343 15.3345 113.044 14.9514C112.749 14.5706 112.305 14.378 111.711 14.378C111.201 14.378 110.811 14.5438 110.539 14.8708C110.267 15.1934 110.117 15.5854 110.089 16.0446V22.4333H106.591V16.3761C106.591 15.8094 106.44 15.3345 106.141 14.9514C105.846 14.5706 105.403 14.378 104.808 14.378C104.269 14.378 103.866 14.555 103.594 14.9066C103.322 15.2606 103.187 15.6817 103.187 16.1701V22.4333H99.6887Z" fill="white"/>
</svg>
